/* XPM */
static char *faustlive[] = {
/* columns rows colors chars-per-pixel */
"32 32 114 2",
"   c #2E3332",
".  c #313231",
"X  c #333D38",
"o  c #0F3D75",
"O  c #123E75",
"+  c #1B3D73",
"@  c #3A2D6D",
"#  c #223F6F",
"$  c #36316D",
"%  c #223E72",
"&  c #293F70",
"*  c #3A3572",
"=  c #3E3874",
"-  c #51394F",
";  c #603B53",
":  c #452F6D",
">  c #5A276A",
",  c #5B296B",
"<  c #483367",
"1  c #40306A",
"2  c #48316A",
"3  c #553761",
"4  c #593664",
"5  c #413471",
"6  c #423C77",
"7  c #632B6B",
"8  c #6C346E",
"9  c #72356C",
"0  c #70396A",
"q  c #602F70",
"w  c #742F70",
"e  c #623171",
"r  c #783172",
"t  c #164076",
"y  c #1B4172",
"u  c #164178",
"i  c #1B457A",
"p  c #1F487C",
"a  c #25446D",
"s  c #2C446C",
"d  c #314667",
"f  c #3E4667",
"g  c #3C4965",
"h  c #33446C",
"j  c #3B456B",
"k  c #3F4969",
"l  c #244071",
"z  c #284270",
"x  c #244A7E",
"c  c #2D507F",
"v  c #424C47",
"b  c #454A4E",
"n  c #47534C",
"m  c #49534D",
"M  c #484D5E",
"N  c #554E5C",
"B  c #5C4D5A",
"V  c #4A5157",
"C  c #5E5355",
"Z  c #585258",
"A  c #6D5655",
"S  c #64515C",
"D  c #6A545D",
"F  c #715555",
"G  c #775B54",
"H  c #7C5851",
"J  c #454C63",
"K  c #4C4C62",
"L  c #41476A",
"P  c #544D62",
"I  c #455670",
"U  c #7E4364",
"Y  c #696B62",
"T  c #7B7473",
"R  c #797E72",
"E  c #7E7B7C",
"W  c #BF763E",
"Q  c #89125F",
"!  c #81235F",
"~  c #8B1661",
"^  c #861D61",
"/  c #8D1964",
"(  c #835B4E",
")  c #8E614C",
"_  c #94634C",
"`  c #9D664A",
"'  c #B06C41",
"]  c #8D5B72",
"[  c #876279",
"{  c #264E81",
"}  c #2A4C80",
"|  c #2B5384",
" . c #325687",
".. c #345A8A",
"X. c #3A5B8A",
"o. c #3E618F",
"O. c #426592",
"+. c #476994",
"@. c #4B6C96",
"#. c #4E6E98",
"$. c #53739B",
"%. c #5D7BA1",
"&. c #607EA3",
"*. c #6582A6",
"=. c #6883A7",
"-. c #6A85A8",
";. c #6E89AA",
":. c #728DAE",
">. c #7790B0",
",. c #7D95B3",
"<. c #7F99B6",
"1. c #8198B5",
"2. c #889EBA",
"3. c None",
/* pixels */
"3.3.3.3.3.3.3.3.3.3.3.3.3.3.3.3.3.3.3.3.3.3.3.3.3.3.3.3.3.3.3.3.",
"3.3.3.3.3.3.3.R 3.3.3.3.3.3.3.3.3.3.3.3.3.3.3.3.3.3.3.3.3.3.3.3.",
"3.3.3.3.E 3.3.3.Y 3.3.3.3.3.3.3.3.3.3.3.3.3.3.3.3.3.3.3.3.3.3.3.",
"3.3.3.3.I i 3.3.n . 3.3.3.3.3.3.3.3.3.3.3.3.3.3.3.3.3.3.3.3.3.3.",
"3.T [ 3.p O i 3.3.X   3.3.3.3.3.3.3.3.3.3.3.3.3.3.3.3.3.3.3.3.3.",
"3.] ^ / 3.i O 3.3.v   3.3.3.3.3.3.3.3.3.3.3.3.3.3.3.3.3.3.3.3.3.",
"3.3./ Q 3.3.i i 3.3.n v 3.3.3.3.3.3.3.3.3.3.3.3.3.3.3.3.3.3.3.3.",
"3.3.3.~ ~ 3.3.i 3.3.3.3.3.3.3.3.3.3.3.3.3.3.3.3.3.3.3.3.3.3.3.3.",
"3.3.3.3./ / 3.3.V 3.3.3.m 3.3.3.3.3.3.3.3.3.3.3.3.3.3.3.3.3.3.3.",
"3.3.3.3.3.! 3.3.b 3.3.3.3.n 3.3.3.3.3.3.3.3.3.3.3.3.3.3.3.3.3.3.",
"3.3.3.3.3.3.3.3.3.3.3.3.3.3.; 3.3.3.3.3.3.3.3.3.3.3.3.3.3.3.3.3.",
"3.3.3.3.3.3.3.3.V B , @ @ @ @ @ @ @ @ @ @ @ 1 2 4 3 < < : r r 3.",
"3.3.3.3.3.3.3.3.3.- $ o O O O O O O O O O o y s P Z s s % e e 3.",
"3.3.3.3.3.3.3.3.3.3.$ O O O O O O O O O O t O a P ( g k j 9 9 3.",
"3.3.3.3.3.3.3.3.3.3.* O O O O O O O O O O a J d K ) G H B U U 3.",
"3.3.3.3.3.3.3.3.3.3.* O O O O O O O O O O h S ( _ W ` N d 0 0 3.",
"3.3.3.3.3.3.3.3.3.3.* O O O O O O O O O O + h g A ' _ J s e e 3.",
"3.3.3.3.3.3.3.3.3.3.* O O O O O O O O O O y s d H A S F j 8 8 3.",
"3.3.3.3.3.3.3.3.3.3.* O O O O O O O O O O y y M A K a C f 8 8 3.",
"3.3.3.3.3.3.3.3.3.3.* o O O O O O O O O O O y d f g O s # e e 3.",
"3.3.3.3.3.3.3.3.3.3.* { | i p u i u i { | | | c y s O O + e e 3.",
"3.3.3.3.3.3.3.3.3.3.6 :.#.+.:. .@...%.;.+.@.2.+.O y O O + e e 3.",
"3.3.3.3.3.3.3.3.3.3.6 <.$.*.>.@.$.X.%.;.$.p *.u O O O O + e e 3.",
"3.3.3.3.3.3.3.3.3.3.6 =.| ,.>.-.&.$.@...>. .*.u O O O O + e e 3.",
"3.3.3.3.3.3.3.3.3.3.= ..x  .i ..+.$.{ $.@.i ..t O O O O O e e 3.",
"3.3.3.3.3.3.3.3.3.3.* o O + l O O O i u O p p u O p {  .x e e 3.",
"3.3.3.3.3.3.3.3.3.3.* y O h k O + O #.O.O &.*.o.| *.,.%.X.e e 3.",
"3.3.3.3.3.3.3.3.3.3.* z P D D j y o $.+.o ;.+.=.%.@.2.*. .q q 3.",
"3.3.3.3.3.3.3.3.3.3.* O L ` _ K z O $.%.{ :.| :.2.{ 1.O.} e e 3.",
"3.3.3.3.3.3.3.3.3.3.* O L S D s O O ..&.#.O.i ..O.O $.%.X.e e 3.",
"3.3.3.3.3.3.3.3.3.3.5 % s % h & + O O O O O + O O + O O + e e 3.",
"3.3.3.3.3.3.3.3.3.3.w , , , 7 , , , > , , , > > > > > > 7 3.3.3."
};
